<?xml version="1.0" encoding="UTF-8" standalone="no"?>
<!-- Created with Inkscape (http://www.inkscape.org/) -->

<svg
   xmlns:dc="http://purl.org/dc/elements/1.1/"
   xmlns:cc="http://creativecommons.org/ns#"
   xmlns:rdf="http://www.w3.org/1999/02/22-rdf-syntax-ns#"
   xmlns:svg="http://www.w3.org/2000/svg"
   xmlns="http://www.w3.org/2000/svg"
   xmlns:sodipodi="http://sodipodi.sourceforge.net/DTD/sodipodi-0.dtd"
   xmlns:inkscape="http://www.inkscape.org/namespaces/inkscape"
   width="512.70081"
   height="521.51971"
   viewBox="0 0 135.65209 137.98543"
   version="1.1"
   id="svg8"
   inkscape:version="0.92.4 (5da689c313, 2019-01-14)"
   sodipodi:docname="check-mark.svg">
  <defs
     id="defs2" />
  <sodipodi:namedview
     id="base"
     pagecolor="#ffffff"
     bordercolor="#666666"
     borderopacity="1.0"
     inkscape:pageopacity="0.0"
     inkscape:pageshadow="2"
     inkscape:zoom="1"
     inkscape:cx="291.29919"
     inkscape:cy="275.53943"
     inkscape:document-units="mm"
     inkscape:current-layer="layer2"
     showgrid="false"
     units="px"
     showguides="false"
     inkscape:window-width="1920"
     inkscape:window-height="986"
     inkscape:window-x="-11"
     inkscape:window-y="-11"
     inkscape:window-maximized="1" />
  <metadata
     id="metadata5">
    <rdf:RDF>
      <cc:Work
         rdf:about="">
        <dc:format>image/svg+xml</dc:format>
        <dc:type
           rdf:resource="http://purl.org/dc/dcmitype/StillImage" />
        <dc:title />
      </cc:Work>
    </rdf:RDF>
  </metadata>
  <g
     inkscape:label="Layer 1"
     inkscape:groupmode="layer"
     id="layer1"
     transform="translate(0,-159.01457)" />
  <g
     inkscape:groupmode="layer"
     id="layer2"
     inkscape:label="Layer 2">
    <path
       style="opacity:1;fill:#00ff00;fill-opacity:1;stroke:#0a1c09;stroke-width:4.491;stroke-linecap:round;stroke-linejoin:round;stroke-miterlimit:4;stroke-dasharray:none;stroke-opacity:1;paint-order:stroke fill markers"
       d="m 48.764395,126.11115 c -1.324411,-0.40363 -2.007903,-0.76007 -3.101959,-1.61767 C 44.224144,123.36606 11.119967,92.140562 10.147624,90.994156 8.2968664,88.812081 7.5912842,86.239267 8.1323316,83.64559 c 0.6702045,-3.21286 2.9549464,-5.743238 6.1464204,-6.807253 1.973087,-0.657811 5.532412,-0.497345 7.216046,0.325312 1.089411,0.532314 3.174981,2.40724 15.292587,13.748076 6.729529,6.298134 12.490177,11.637385 12.801442,11.864995 0.549791,0.40202 0.573112,0.40503 0.817446,0.10547 0.741999,-0.90972 7.384389,-10.207384 32.137809,-44.984788 15.004708,-21.080926 27.709408,-38.878257 28.232658,-39.549625 2.60973,-3.348451 4.9397,-4.512986 8.71916,-4.357891 1.99055,0.08169 3.26722,0.450065 4.72263,1.362708 3.68206,2.308912 5.13819,6.44885 3.70841,10.543392 -0.16475,0.471791 -2.28409,3.641152 -5.22404,7.812271 -11.20176,15.892736 -61.855324,86.904483 -63.191675,88.589063 -0.794241,1.00119 -1.720714,2.03573 -2.058828,2.29893 -0.715403,0.55693 -2.24308,1.29269 -3.330045,1.60381 -1.117115,0.31975 -4.184089,0.26885 -5.357957,-0.0889 z"
       id="path3737"
       inkscape:connector-curvature="0" />
  </g>
</svg>
